<?xml version="1.0" encoding="utf-8"?>
<!-- Generator: Adobe Illustrator 27.7.0, SVG Export Plug-In . SVG Version: 6.00 Build 0)  -->
<svg version="1.1" id="Layer_1" xmlns="http://www.w3.org/2000/svg" xmlns:xlink="http://www.w3.org/1999/xlink" x="0px" y="0px"
	 viewBox="0 0 15 15" style="enable-background:new 0 0 15 15;" xml:space="preserve">
<style type="text/css">
	.st0{fill:#FFFFFF;}
</style>
<path class="st0" d="M7.5,4.1c-1.9,0-3.4,1.5-3.4,3.4s1.5,3.4,3.4,3.4s3.4-1.5,3.4-3.4S9.4,4.1,7.5,4.1z M7.5,9.7
	c-1.2,0-2.2-1-2.2-2.2s1-2.2,2.2-2.2s2.2,1,2.2,2.2S8.7,9.7,7.5,9.7L7.5,9.7z M11.9,3.9c0,0.4-0.4,0.8-0.8,0.8
	c-0.4,0-0.8-0.4-0.8-0.8s0.4-0.8,0.8-0.8S11.9,3.5,11.9,3.9z M14.2,4.7c-0.1-1.1-0.3-2-1.1-2.8c-0.8-0.8-1.7-1-2.8-1.1
	c-1.1-0.1-4.4-0.1-5.5,0c-1.1,0.1-2,0.3-2.8,1.1s-1,1.7-1.1,2.8c-0.1,1.1-0.1,4.4,0,5.5c0.1,1.1,0.3,2,1.1,2.8s1.7,1,2.8,1.1
	c1.1,0.1,4.4,0.1,5.5,0c1.1-0.1,2-0.3,2.8-1.1c0.8-0.8,1-1.7,1.1-2.8C14.2,9.2,14.2,5.8,14.2,4.7L14.2,4.7z M12.7,11.5
	c-0.2,0.6-0.7,1-1.3,1.3c-0.9,0.3-3,0.3-4,0.3s-3.1,0.1-4-0.3c-0.6-0.2-1-0.7-1.3-1.3c-0.3-0.9-0.3-3-0.3-4s-0.1-3.1,0.3-4
	C2.5,3,3,2.5,3.6,2.3c0.9-0.3,3-0.3,4-0.3s3.1-0.1,4,0.3c0.6,0.2,1,0.7,1.3,1.3c0.3,0.9,0.3,3,0.3,4S13.1,10.6,12.7,11.5z"/>
</svg>
