<?xml version="1.0" encoding="utf-8"?>
<!-- Generator: Adobe Illustrator 27.7.0, SVG Export Plug-In . SVG Version: 6.00 Build 0)  -->
<svg version="1.1" id="Layer_1" xmlns="http://www.w3.org/2000/svg" xmlns:xlink="http://www.w3.org/1999/xlink" x="0px" y="0px"
	 viewBox="0 0 126.9 22" style="enable-background:new 0 0 126.9 22;" xml:space="preserve">
<style type="text/css">
	.st0{fill:#FFFFFF;}
</style>
<g>
	<path class="st0" d="M23.2,12.7c1.7-1.1,2.8-2.8,2.8-5V7.4c0-4.2-3-6.1-7-6.1h-4.2h-0.1c-0.2,0-0.7,0-1,0c-1.1,0-2.1,0.8-2.1,2.2
		v9.4L5.8,2.7c-0.6-1-1.9-1.5-3-1.4c-1.1,0.2-2.3,1-2.3,2.4v16.6h4.3V9.1l5.7,10.1c0.6,1,1.9,1.5,3.1,1.4c1.1-0.1,2.3-0.8,2.3-2.3
		v-1.6l0,0v-2.8h3l3.5,6.3h5.3L23.2,12.7z M21.3,7.7c0,1.2-0.8,2.2-2.4,2.2h-3V6c0-0.6,0.1-0.7,0.7-0.7H19c1.6,0,2.4,1,2.4,2.2v0.2
		H21.3z"/>
	<path class="st0" d="M40.1,16.1c0.3,0,0.5,0.1,0.7,0.2s0.4,0.2,0.5,0.4c0.1,0.2,0.2,0.3,0.2,0.5s0.1,0.4,0.1,0.6s0,0.4-0.1,0.6
		s-0.1,0.4-0.3,0.5c-0.1,0.2-0.3,0.3-0.5,0.4s-0.4,0.2-0.7,0.2h-7.4c-0.6,0-1.1-0.1-1.5-0.2s-0.7-0.3-0.9-0.5s-0.4-0.6-0.5-1
		s-0.1-0.9-0.1-1.5V4.2c0-0.7,0.2-1.2,0.6-1.5s0.9-0.5,1.4-0.5c0.6,0,1,0.2,1.4,0.5s0.6,0.8,0.6,1.5v11.3c0,0.2,0,0.4,0.1,0.4
		c0.1,0.1,0.2,0.1,0.5,0.1h5.9V16.1z M42.8,3.5c0-0.7,0.2-1.1,0.6-1.5c0.4-0.3,0.9-0.5,1.4-0.5c0.3,0,0.5,0,0.8,0.1
		C45.8,1.7,46,1.8,46.2,2s0.3,0.4,0.4,0.6c0.1,0.2,0.2,0.5,0.2,0.9v5.1h0.7c0.3,0,0.6,0.1,0.8,0.2c0.2,0.1,0.4,0.2,0.5,0.4
		S49,9.5,49,9.8c0.1,0.2,0.1,0.4,0.1,0.6c0,0.2,0,0.4-0.1,0.6c-0.1,0.2-0.1,0.4-0.3,0.6s-0.3,0.3-0.5,0.4c-0.2,0.1-0.5,0.2-0.8,0.2
		h-0.7v8.4h-4L42.8,3.5L42.8,3.5z"/>
	<path class="st0" d="M60.9,16v4.7h-4.1V16H51c-0.6,0-1-0.2-1.3-0.5s-0.4-0.7-0.4-1.1c0-0.2,0-0.4,0.1-0.6s0.2-0.4,0.3-0.5
		c0.1-0.2,0.3-0.3,0.5-0.4c0.2-0.1,0.5-0.1,0.8-0.1h15.6c0.3,0,0.6,0,0.8,0.1c0.2,0.1,0.4,0.2,0.5,0.4s0.2,0.3,0.3,0.5
		c0.1,0.2,0.1,0.4,0.1,0.6c0,0.4-0.1,0.8-0.4,1.1S67.2,16,66.6,16H60.9z M67.8,6.8c0,0.6-0.1,1.2-0.3,1.7C67.3,9,67,9.5,66.6,10
		c-0.4,0.4-0.9,0.8-1.5,1c-0.6,0.3-1.2,0.4-2,0.4h-8.8c-0.7,0-1.4-0.1-2-0.4c-0.6-0.3-1.1-0.6-1.5-1s-0.7-0.9-0.9-1.5
		c-0.2-0.5-0.3-1.1-0.3-1.7V6.5c0-0.6,0.1-1.2,0.3-1.7s0.5-1,0.9-1.5s0.9-0.8,1.5-1s1.2-0.4,2-0.4h8.8c0.7,0,1.4,0.1,2,0.4
		s1.1,0.6,1.5,1s0.7,0.9,0.9,1.5c0.2,0.5,0.3,1.1,0.3,1.7V6.8z M63.6,6.5c0-0.4-0.1-0.7-0.4-1S62.5,5.1,62,5.1h-6.3
		c-0.6,0-1,0.1-1.3,0.4S54,6.1,54,6.5v0.2c0,0.4,0.1,0.7,0.4,0.9C54.7,7.9,55.1,8,55.7,8H62c0.6,0,1-0.1,1.3-0.4s0.4-0.6,0.4-0.9
		V6.5H63.6z"/>
	<path class="st0" d="M72.3,13.1c-0.5,0-1-0.1-1.4-0.3s-0.8-0.4-1-0.8c-0.3-0.3-0.5-0.7-0.7-1.1S69,10.1,69,9.7V9.3
		c0-0.9,0.3-1.7,0.9-2.2s1.4-0.9,2.5-0.9h1.2V5.5c0-0.1,0-0.2-0.1-0.3c-0.1-0.1-0.2-0.1-0.4-0.1h-2.6c-0.2,0-0.5,0-0.6-0.1
		c-0.2-0.1-0.3-0.2-0.4-0.4c-0.1-0.1-0.2-0.3-0.3-0.5c-0.1-0.2-0.1-0.3-0.1-0.5s0-0.4,0.1-0.5c0.1-0.2,0.1-0.3,0.3-0.5
		c0.1-0.1,0.3-0.3,0.4-0.4c0.2-0.1,0.4-0.1,0.6-0.1h3.7c1.1,0,1.9,0.2,2.3,0.7s0.7,1.1,0.7,2V9h-3.7c-0.2,0-0.4,0-0.5,0.1
		s-0.1,0.2-0.1,0.4v0.1c0,0.1,0,0.2,0.1,0.3s0.2,0.1,0.4,0.1h4.1c0.2,0,0.5,0,0.6,0.1c0.2,0.1,0.3,0.2,0.4,0.4
		c0.1,0.1,0.2,0.3,0.2,0.5s0.1,0.4,0.1,0.5c0,0.2,0,0.4-0.1,0.5s-0.1,0.3-0.2,0.5c-0.1,0.1-0.2,0.3-0.4,0.4C77.9,13,77.7,13,77.5,13
		L72.3,13.1L72.3,13.1z M73,20.6c-0.6,0-1-0.1-1.4-0.2s-0.7-0.3-0.9-0.5s-0.4-0.5-0.5-0.9s-0.1-0.8-0.1-1.4v-1.7
		c0-0.7,0.2-1.2,0.6-1.5s0.9-0.5,1.5-0.5s1.1,0.2,1.4,0.5c0.4,0.3,0.6,0.8,0.6,1.5V17c0,0.2,0,0.4,0.1,0.4c0.1,0.1,0.2,0.1,0.4,0.1
		H86c0.6,0,1.1,0.2,1.3,0.5s0.4,0.7,0.4,1.1s-0.1,0.8-0.4,1.1c-0.3,0.3-0.7,0.5-1.3,0.5H73V20.6z M79.6,8.4h-0.7
		c-0.5,0-0.9-0.2-1.1-0.5s-0.4-0.7-0.4-1.1s0.1-0.8,0.3-1.1c0.2-0.3,0.6-0.5,1.1-0.5h0.7v-2c0-0.6,0.2-1,0.5-1.3s0.8-0.4,1.2-0.4
		c0.5,0,0.9,0.1,1.2,0.4C82.9,2.2,83,2.6,83,3.2v12.2h-3.5L79.6,8.4L79.6,8.4z M83.9,3.2c0-0.6,0.2-1,0.5-1.3
		c0.4-0.3,0.8-0.4,1.2-0.4c0.5,0,0.9,0.1,1.2,0.4c0.4,0.3,0.5,0.7,0.5,1.3v12.2h-3.5V3.2H83.9z"/>
	<path class="st0" d="M109.1,16.4c0.7-0.1,1.3-0.2,1.9-0.3c0.6-0.2,1.1-0.4,1.6-0.7s0.9-0.7,1.2-1.2c0.3-0.5,0.6-1.1,0.7-1.9h-5.2
		c-0.3,0-0.6-0.1-0.8-0.2c-0.2-0.1-0.4-0.2-0.5-0.4s-0.2-0.3-0.3-0.6c-0.1-0.2-0.1-0.4-0.1-0.6c0-0.2,0-0.4,0.1-0.6
		c0.1-0.2,0.2-0.4,0.3-0.5s0.3-0.3,0.5-0.4s0.5-0.2,0.8-0.2h5.4V6.3c0-0.1,0-0.3-0.1-0.4s-0.2-0.1-0.4-0.1h-4.7
		c-0.3,0-0.6-0.1-0.8-0.2c-0.2-0.1-0.4-0.2-0.5-0.4c-0.1-0.2-0.2-0.4-0.3-0.6c-0.1-0.2-0.1-0.4-0.1-0.6c0-0.2,0-0.4,0.1-0.6
		c0.1-0.2,0.2-0.4,0.3-0.6c0.1-0.2,0.3-0.3,0.5-0.4s0.5-0.2,0.8-0.2h6c1.2,0,2,0.3,2.5,0.8s0.7,1.2,0.7,2.2v4.6
		c0,1.8-0.2,3.4-0.7,4.6s-1.1,2.2-1.9,3s-1.8,1.3-2.9,1.7c-1.1,0.4-2.4,0.6-3.7,0.6c-0.2,0-0.5,0-0.7-0.1s-0.4-0.2-0.6-0.3
		c-0.2-0.1-0.3-0.3-0.4-0.6c-0.1-0.2-0.2-0.5-0.2-0.8c0-0.4,0.1-0.8,0.4-1.1C108.2,16.6,108.6,16.4,109.1,16.4z M120.2,3.5
		c0-0.7,0.2-1.1,0.6-1.5c0.4-0.3,0.9-0.5,1.4-0.5c0.3,0,0.5,0,0.8,0.1s0.5,0.2,0.6,0.4c0.2,0.2,0.3,0.4,0.4,0.6
		c0.1,0.2,0.2,0.5,0.2,0.9v5.1h0.7c0.3,0,0.6,0.1,0.8,0.2c0.2,0.1,0.4,0.2,0.5,0.4s0.2,0.4,0.3,0.6c0.1,0.2,0.1,0.4,0.1,0.6
		c0,0.2,0,0.4-0.1,0.6c-0.1,0.2-0.1,0.4-0.3,0.6s-0.3,0.3-0.5,0.4s-0.5,0.2-0.8,0.2h-0.7v8.4h-4V3.5z"/>
	<path class="st0" d="M105.4,17.1c0.3,0,0.6,0.1,0.8,0.2c0.2,0.1,0.4,0.2,0.5,0.4c0.1,0.2,0.2,0.3,0.3,0.5c0.1,0.2,0.1,0.4,0.1,0.6
		s0,0.4-0.1,0.6s-0.2,0.4-0.3,0.5c-0.1,0.2-0.3,0.3-0.5,0.4s-0.5,0.1-0.8,0.1H90c-0.3,0-0.6,0-0.8-0.1c-0.2-0.1-0.4-0.2-0.5-0.4
		c-0.1-0.2-0.2-0.3-0.3-0.5c-0.1-0.2-0.1-0.4-0.1-0.6s0-0.4,0.1-0.6s0.2-0.4,0.3-0.5c0.1-0.2,0.3-0.3,0.5-0.4s0.5-0.2,0.8-0.2H105.4
		z M104.6,2.3c0.3,0,0.5,0,0.7,0.1s0.4,0.2,0.5,0.4s0.2,0.3,0.3,0.5c0.1,0.2,0.1,0.4,0.1,0.6c0,0.4-0.1,0.8-0.4,1.1
		c-0.2,0.3-0.6,0.5-1.2,0.5H93.8c-0.4,0-0.6,0.2-0.6,0.5v0.8h11.2c0.6,0,1,0.2,1.2,0.5S106,8,106,8.4c0,0.4-0.1,0.7-0.4,1.1
		c-0.2,0.3-0.6,0.5-1.2,0.5H93.2v0.8c0,0.2,0.1,0.4,0.2,0.4c0.1,0.1,0.3,0.1,0.5,0.1H105c0.3,0,0.5,0,0.7,0.1s0.4,0.2,0.5,0.4
		s0.2,0.3,0.3,0.5c0.1,0.2,0.1,0.4,0.1,0.6c0,0.4-0.1,0.8-0.4,1.1c-0.2,0.3-0.6,0.5-1.2,0.5H92.4c-1.2,0-2-0.3-2.5-0.8
		s-0.7-1.3-0.7-2.5V5.5c0-1.1,0.2-1.9,0.7-2.5c0.5-0.5,1.3-0.8,2.5-0.8L104.6,2.3L104.6,2.3z"/>
</g>
</svg>
