<?xml version="1.0" encoding="utf-8"?>
<!-- Generator: Adobe Illustrator 27.7.0, SVG Export Plug-In . SVG Version: 6.00 Build 0)  -->
<svg version="1.1" id="Layer_1" xmlns="http://www.w3.org/2000/svg" xmlns:xlink="http://www.w3.org/1999/xlink" x="0px" y="0px"
	 viewBox="0 0 15 15" style="enable-background:new 0 0 15 15;" xml:space="preserve">
<style type="text/css">
	.st0{fill:#FFFFFF;}
</style>
<path class="st0" d="M13.9,4.3c-0.2-0.6-0.6-1-1.2-1.2c-1-0.3-5.2-0.3-5.2-0.3s-4.2,0-5.2,0.3c-0.6,0.2-1,0.6-1.2,1.2
	C0.8,5.3,0.8,7.5,0.8,7.5s0,2.2,0.3,3.2c0.2,0.6,0.6,1,1.2,1.2c1,0.3,5.2,0.3,5.2,0.3s4.2,0,5.2-0.3c0.6-0.2,1-0.6,1.2-1.2
	c0.3-1.1,0.3-3.2,0.3-3.2S14.2,5.3,13.9,4.3L13.9,4.3z M6.1,9.5v-4l3.5,2L6.1,9.5L6.1,9.5z"/>
</svg>
